<svg width="781" height="135" viewBox="0 0 781 135" fill="none" xmlns="http://www.w3.org/2000/svg">
<path fill-rule="evenodd" clip-rule="evenodd" d="M19.1296 78.8789C19.1199 78.877 19.1104 78.8734 19.1018 78.8685C17.1582 77.7605 15.5671 78.6722 15.5671 80.9005V87.1888C15.5671 89.4222 17.1654 92.1661 19.115 93.2857L27.6157 98.1643C29.5653 99.2839 32.756 101.117 34.7055 102.237L58.8086 116.066C60.7581 117.186 63.9488 117.186 65.8984 116.066L90.0014 102.237C91.951 101.117 95.1417 99.2839 97.0912 98.1643L105.592 93.2857C107.542 92.1661 110.732 90.333 112.682 89.2134L121.188 84.3347C123.138 83.2151 124.736 84.1259 124.736 86.3593V96.1398C124.736 98.3731 123.138 101.117 121.188 102.237L112.688 107.115C110.738 108.235 109.14 109.151 109.14 109.151C109.14 109.151 107.541 110.068 105.592 111.188L97.0971 116.06C95.1476 117.18 93.5492 118.097 93.5492 118.097C93.5492 118.097 91.9509 119.013 90.0014 120.133L81.5065 125.006C79.557 126.125 77.9587 127.042 77.9587 127.042C77.9587 127.042 76.3604 127.958 74.4108 129.078L65.9159 133.951C63.9664 135.07 60.7757 135.07 58.8203 133.951L50.3254 129.078C48.3759 127.958 46.7775 127.042 46.7775 127.042C46.7775 127.042 45.1792 126.125 43.2297 125.006L34.7348 120.133C32.7853 119.013 31.187 118.097 31.187 118.097C31.187 118.097 29.5886 117.18 27.6391 116.06L19.1443 111.188C17.1949 110.068 15.5964 109.151 15.5964 109.151C15.5964 109.151 13.998 108.235 12.0486 107.115L3.54783 102.237C1.59828 101.117 0 98.3731 0 96.1398V54.0535C0 51.8202 1.59828 50.9094 3.54783 52.029L12.0544 56.9076C14.004 58.0272 17.1947 59.8603 19.1443 60.9799L27.645 65.8586C29.5942 66.9779 31.1928 67.8947 31.1928 67.8947C31.1928 67.8947 32.7915 68.8115 34.7407 69.9309L43.2414 74.8095C45.191 75.9291 48.3817 77.7622 50.3312 78.8818L58.8378 83.7604C60.7874 84.88 63.9781 84.88 65.9276 83.7604L74.4342 78.8818C76.3838 77.7622 79.5745 75.9291 81.5241 74.8095L90.0248 69.9309C91.9741 68.8114 93.5726 67.8947 93.5726 67.8947C93.5726 67.8947 95.1712 66.978 97.1205 65.8586L105.621 60.9799C107.571 59.8603 110.761 58.0272 112.711 56.9076L121.218 52.029C123.167 50.9094 124.765 51.8202 124.765 54.0535V63.834C124.765 66.0674 123.167 68.8113 121.218 69.9309L112.711 74.8095C110.761 75.9291 107.571 77.7622 105.621 78.8818L97.1205 83.7604C95.1709 84.88 91.9802 86.7131 90.0307 87.8327L81.5241 92.7114C79.5745 93.831 76.3838 95.6641 74.4342 96.7837L65.9276 101.662C63.9781 102.782 60.7874 102.782 58.8378 101.662L50.3312 96.7837C48.3817 95.6641 45.191 93.831 43.2414 92.7114L34.7348 87.8327C32.7853 86.7131 29.5946 84.88 27.645 83.7604L19.1572 78.8892C19.1486 78.8843 19.1393 78.8808 19.1296 78.8789Z" fill="#0091B5"/>
<path d="M121.183 36.4999C123.134 35.3827 123.132 33.561 121.195 32.4466C121.188 32.4421 121.178 32.4426 121.171 32.4479C121.164 32.4532 121.154 32.4537 121.146 32.4493L112.664 27.6011C110.709 26.4873 107.512 26.4873 105.563 27.6011L97.0736 32.4566C95.1241 33.5762 91.9275 35.4035 89.978 36.5173L65.8808 50.3004C63.9313 51.4142 60.7347 51.4142 58.7851 50.3004L34.688 36.5173C32.7384 35.3977 32.7384 33.5704 34.688 32.4566L58.7851 18.6734C60.7347 17.5596 63.9313 15.7323 65.8808 14.6127L74.3757 9.75147C76.3253 8.63188 76.3253 6.80457 74.3757 5.69078L65.8867 0.835343C63.9313 -0.278448 60.7347 -0.278448 58.7851 0.835343L50.2961 5.69078C48.3806 6.78752 46.8078 7.68387 46.7444 7.71999L46.7404 7.72226C46.6771 7.75856 45.1044 8.66038 43.1946 9.75147L34.7055 14.6069C32.7501 15.7207 31.1577 16.6373 31.1519 16.6373C31.146 16.6373 29.5477 17.5538 27.5982 18.6676L19.1091 23.523C17.1596 24.6368 15.5611 25.5535 15.5611 25.5535C15.5411 25.565 13.9507 26.477 12.0135 27.5837L3.51856 32.4392C1.56901 33.5588 1.56901 35.3861 3.51856 36.4999L12.0193 41.3611C13.9689 42.4749 17.1654 44.3022 19.115 45.4218L27.6099 50.283C29.5594 51.3968 32.756 53.2299 34.7055 54.3437L58.8027 68.1269C60.7523 69.2407 63.9488 69.2407 65.8984 68.1269L89.9955 54.3437C91.9451 53.2299 95.1417 51.4026 97.0912 50.283L121.183 36.4999Z" fill="#44DFD7"/>
<path d="M751.259 45.247C767.87 45.247 780.272 57.2067 780.272 74.814C780.272 92.5321 767.87 104.492 751.259 104.492C743.08 104.492 735.928 101.41 731.009 95.5464C730.404 94.8257 729.112 95.2312 729.112 96.172L729.112 124.477C729.112 124.998 728.689 125.421 728.167 125.421L722.193 125.421C721.672 125.421 721.249 124.998 721.249 124.477L721.249 46.6341C721.249 46.1127 721.672 45.69 722.193 45.69L727.835 45.69C728.357 45.69 728.779 46.1127 728.779 46.6341L728.779 53.866C728.779 54.8184 730.107 55.2204 730.706 54.4805C735.576 48.4736 742.823 45.247 751.259 45.247ZM750.705 97.5153C762.997 97.5153 772.41 88.4348 772.41 74.814C772.41 61.304 762.997 52.1128 750.705 52.1128C738.303 52.1128 729.001 61.304 729.001 74.814C729.001 88.4348 738.303 97.5153 750.705 97.5153Z" fill="#F7FCFF"/>
<path d="M695.796 46.6347C695.796 46.1133 696.219 45.6906 696.74 45.6906L702.715 45.6906C703.236 45.6906 703.659 46.1133 703.659 46.6347L703.659 102.995C703.659 103.516 703.236 103.939 702.715 103.939L697.073 103.939C696.551 103.939 696.128 103.516 696.128 102.995L696.128 96.8272C696.128 95.8616 694.743 95.4541 694.132 96.2021C689.807 101.498 683.151 104.492 675.199 104.492C660.36 104.492 650.615 96.187 650.615 79.4656L650.615 46.6347C650.615 46.1132 651.038 45.6906 651.559 45.6906L657.533 45.6906C658.055 45.6906 658.478 46.1133 658.478 46.6347L658.478 78.6904C658.478 91.0931 664.9 97.4051 675.974 97.4051C688.155 97.4051 695.796 89.5427 695.796 76.2542L695.796 46.6347Z" fill="#F7FCFF"/>
<path d="M609.98 104.492C592.926 104.492 580.302 92.0891 580.302 74.814C580.302 57.5389 592.926 45.247 609.98 45.247C627.033 45.247 639.547 57.5389 639.547 74.814C639.547 92.0891 627.033 104.492 609.98 104.492ZM609.98 97.5153C622.382 97.5153 631.574 88.4348 631.574 74.814C631.574 61.1933 622.382 52.1128 609.98 52.1128C597.577 52.1128 588.275 61.1933 588.275 74.814C588.275 88.4348 597.577 97.5153 609.98 97.5153Z" fill="#F7FCFF"/>
<path d="M555.09 52.8792C555.09 53.8874 556.651 54.292 557.259 53.4874C561.197 48.2711 567.507 45.4518 575.961 45.2578C576.482 45.2458 576.906 45.6697 576.906 46.1911L576.906 51.9438C576.906 52.4652 576.483 52.881 575.963 52.8361C575.63 52.8073 575.312 52.7772 575.023 52.7772C562.842 52.7772 555.423 60.5288 555.423 74.2603L555.423 102.994C555.423 103.515 555 103.938 554.478 103.938L548.504 103.938C547.983 103.938 547.56 103.515 547.56 102.994L547.56 46.6341C547.56 46.1127 547.983 45.69 548.504 45.69L554.146 45.69C554.668 45.69 555.09 46.1127 555.09 46.6341L555.09 52.8792Z" fill="#F7FCFF"/>
<path d="M522.201 91.5939C522.45 91.4204 522.595 91.1345 522.595 90.8314L522.595 66.1241C522.595 65.6027 523.018 65.18 523.539 65.18L529.513 65.18C530.035 65.18 530.457 65.6027 530.457 66.1241L530.457 94.3246C530.457 94.5934 530.343 94.8499 530.141 95.0263C522.85 101.375 512.585 104.603 501.998 104.603C478.411 104.603 461.135 87.8812 461.135 65.18C461.135 42.4787 478.411 25.7573 502.108 25.7573C513.498 25.7573 523.429 29.3023 530.281 36.2912C530.633 36.6506 530.624 37.2243 530.272 37.584L526.468 41.4703C526.103 41.8435 525.505 41.8479 525.122 41.492C518.734 35.5426 511.206 33.066 502.441 33.066C483.283 33.066 469.219 46.6868 469.219 65.18C469.219 83.5625 483.283 97.294 502.33 97.294C509.587 97.294 516.314 95.7048 522.201 91.5939Z" fill="#F7FCFF"/>
<path d="M359.115 103.938C357.573 103.938 356.681 102.189 357.586 100.941L385.328 62.6926C386.402 61.2113 388.745 61.9713 388.745 63.8012L388.745 65.159C388.745 66.9958 386.388 67.7513 385.32 66.2569L358.986 29.4076C358.093 28.1579 358.986 26.4215 360.522 26.4215L376.251 26.4215C376.864 26.4215 377.438 26.7186 377.792 27.2185L397.188 54.6061C398.067 55.8475 397.192 57.5658 395.671 57.5855L394.407 57.6019C392.872 57.6219 391.956 55.8974 392.832 54.6362L411.879 27.2321C412.232 26.7243 412.811 26.4215 413.43 26.4215L428.239 26.4215C429.78 26.4215 430.672 28.1666 429.77 29.4153L403.68 65.5397C402.608 67.0248 400.261 66.2661 400.261 64.4342L400.261 63.2729C400.261 61.4404 402.609 60.6821 403.681 62.1681L431.656 100.945C432.557 102.194 431.664 103.938 430.124 103.938L414.095 103.938C413.476 103.938 412.896 103.635 412.544 103.126L392.351 74.0133C391.483 72.7611 392.379 71.0489 393.903 71.0489L394.912 71.0489C396.43 71.0489 397.327 72.7493 396.471 74.0026L376.572 103.115C376.22 103.63 375.637 103.938 375.013 103.938L359.115 103.938Z" fill="#F7FCFF"/>
<path d="M331.635 103.938C330.592 103.938 329.746 103.092 329.746 102.049L329.746 23.6584C329.746 22.6155 330.592 21.7701 331.635 21.7701L345.133 21.7701C346.176 21.7701 347.021 22.6155 347.021 23.6584L347.021 102.049C347.021 103.092 346.176 103.938 345.133 103.938L331.635 103.938Z" fill="#F7FCFF"/>
<path d="M285.531 104.824C279.182 104.824 273.534 103.495 268.588 100.837C263.715 98.1796 259.84 94.5622 256.96 89.985C254.155 85.3341 252.752 80.0555 252.752 74.1495C252.752 68.1697 254.155 62.8912 256.96 58.314C259.84 53.663 263.715 50.0456 268.588 47.4617C273.534 44.804 279.182 43.4752 285.531 43.4752C291.806 43.4752 297.417 44.804 302.363 47.4617C307.309 50.0456 311.185 53.6261 313.99 58.2033C316.796 62.7805 318.198 68.0959 318.198 74.1495C318.198 80.0556 316.796 85.3341 313.99 89.9851C311.185 94.5622 307.309 98.1796 302.363 100.837C297.417 103.495 291.806 104.824 285.531 104.824ZM285.531 90.6495C288.41 90.6495 290.994 89.9851 293.282 88.6562C295.571 87.3273 297.38 85.4448 298.709 83.0086C300.037 80.4985 300.702 77.5455 300.702 74.1495C300.702 70.6798 300.037 67.7268 298.709 65.2905C297.38 62.8543 295.571 60.9717 293.282 59.6429C290.994 58.314 288.41 57.6496 285.531 57.6496C282.652 57.6496 280.068 58.314 277.779 59.6429C275.491 60.9717 273.645 62.8543 272.242 65.2905C270.913 67.7267 270.249 70.6798 270.249 74.1495C270.249 77.5455 270.913 80.4985 272.242 83.0086C273.645 85.4448 275.491 87.3273 277.779 88.6562C280.068 89.9851 282.652 90.6495 285.531 90.6495Z" fill="#F7FCFF"/>
<path d="M216.337 105.267C210.357 105.267 204.783 104.307 199.616 102.388C194.522 100.395 190.092 97.5894 186.327 93.9719C182.562 90.3545 179.609 86.1096 177.468 81.2371C175.401 76.3646 174.368 71.0123 174.368 65.1801C174.368 59.3479 175.401 53.9956 177.468 49.1231C179.609 44.2507 182.562 40.0057 186.327 36.3883C190.166 32.7708 194.633 30.0024 199.726 28.0829C204.82 26.0897 210.394 25.093 216.448 25.093C223.166 25.093 229.22 26.2742 234.609 28.6366C239.512 30.6908 243.702 33.6372 247.178 37.4757C247.849 38.2168 247.767 39.354 247.032 40.0321L238.246 48.1423C237.466 48.8622 236.251 48.7931 235.503 48.0399C233.197 45.7165 230.685 43.9367 227.965 42.7003C224.716 41.15 221.173 40.3748 217.334 40.3748C213.716 40.3748 210.394 40.9654 207.367 42.1466C204.341 43.3278 201.72 45.0258 199.505 47.2406C197.29 49.4553 195.555 52.0761 194.3 55.103C193.119 58.1298 192.529 61.4888 192.529 65.1801C192.529 68.8714 193.119 72.2304 194.3 75.2573C195.555 78.2841 197.29 80.9049 199.505 83.1196C201.72 85.3344 204.341 87.0324 207.367 88.2136C210.394 89.3948 213.716 89.9854 217.334 89.9854C221.173 89.9854 224.716 89.2471 227.965 87.7706C230.685 86.472 233.199 84.6296 235.506 82.2433C236.249 81.4739 237.477 81.3971 238.263 82.1229L247.032 90.2174C247.767 90.8955 247.849 92.0326 247.179 92.7743C243.703 96.6199 239.513 99.603 234.609 101.724C229.22 104.086 223.129 105.267 216.337 105.267Z" fill="#F7FCFF"/>
</svg>
